HIERARCHY
ROOT Hips
{
	OFFSET -0.001795 -0.223333 0.028219
	CHANNELS 6 Xposition Yposition Zposition Zrotation Yrotation Xrotation 
	JOINT LeftUpLeg
	{
		OFFSET 0.069520 -0.091406 -0.006815
		CHANNELS 3 Zrotation Yrotation Xrotation
		JOINT LeftLeg
		{
			OFFSET 0.034277 -0.375199 -0.004496
			CHANNELS 3 Zrotation Yrotation Xrotation
			JOINT LeftFoot
			{
				OFFSET -0.013596 -0.397961 -0.043693
				CHANNELS 3 Zrotation Yrotation Xrotation
				JOINT LeftToe
				{
					OFFSET 0.026358 -0.055791 0.119288
					CHANNELS 3 Zrotation Yrotation Xrotation
					End Site
					{
						OFFSET 0.000000 0.000000 0.000000
					}
				}
			}
		}
	}
	JOINT RightUpLeg
	{
		OFFSET -0.067670 -0.090522 -0.004320
		CHANNELS 3 Zrotation Yrotation Xrotation
		JOINT RightLeg
		{
			OFFSET -0.038290 -0.382569 -0.008850
			CHANNELS 3 Zrotation Yrotation Xrotation
			JOINT RightFoot
			{
				OFFSET 0.015774 -0.398415 -0.042312
				CHANNELS 3 Zrotation Yrotation Xrotation
				JOINT RightToe
				{
					OFFSET -0.025372 -0.048144 0.123348
					CHANNELS 3 Zrotation Yrotation Xrotation
					End Site
					{
						OFFSET 0.000000 0.000000 0.000000
					}
				}
			}
		}
	}
	JOINT Spine
	{
		OFFSET -0.002533 0.108963 -0.026696
		CHANNELS 3 Zrotation Yrotation Xrotation
		JOINT Spine1
		{
			OFFSET 0.005487 0.135180 0.001092
			CHANNELS 3 Zrotation Yrotation Xrotation
			JOINT Spine2
			{
				OFFSET 0.001457 0.052922 0.025425
				CHANNELS 3 Zrotation Yrotation Xrotation
				JOINT Neck
				{
					OFFSET -0.002778 0.213870 -0.042857
					CHANNELS 3 Zrotation Yrotation Xrotation
					JOINT Head
					{
						OFFSET 0.005152 0.064970 0.051349
						CHANNELS 3 Zrotation Yrotation Xrotation
						End Site
						{
							OFFSET 0.000000 0.000000 0.000000
						}
					}
				}
				JOINT LeftShoulder
				{
					OFFSET 0.078845 0.121749 -0.034090
					CHANNELS 3 Zrotation Yrotation Xrotation
					JOINT LeftArm
					{
						OFFSET 0.090977 0.030469 -0.008868
						CHANNELS 3 Zrotation Yrotation Xrotation
						JOINT LeftForeArm
						{
							OFFSET 0.259612 -0.012772 -0.027456
							CHANNELS 3 Zrotation Yrotation Xrotation
							JOINT LeftHand
							{
								OFFSET 0.249234 0.008986 -0.001171
								CHANNELS 3 Zrotation Yrotation Xrotation
								End Site
								{
									OFFSET 0.000000 0.000000 0.000000
								}
							}
						}
					}
				}
				JOINT RightShoulder
				{
					OFFSET -0.081759 0.118833 -0.038615
					CHANNELS 3 Zrotation Yrotation Xrotation
					JOINT RightArm
					{
						OFFSET -0.096012 0.032551 -0.009143
						CHANNELS 3 Zrotation Yrotation Xrotation
						JOINT RightForeArm
						{
							OFFSET -0.253742 -0.013329 -0.021401
							CHANNELS 3 Zrotation Yrotation Xrotation
							JOINT RightHand
							{
								OFFSET -0.255298 0.007772 -0.005559
								CHANNELS 3 Zrotation Yrotation Xrotation
								End Site
								{
									OFFSET 0.000000 0.000000 0.000000
								}
							}
						}
					}
				}
			}
		}
	}
}
MOTION
Frames: 13
Frame Time: 0.050000
-1.146663 0.938456 -2.382061 4.439358 -3.626257 4.366936 -3.704745 -1.987029 -16.962784 0.354327 -0.445419 13.250954 2.232963 8.034955 12.941580 0.000000 0.000000 0.000000 3.799790 0.368406 -3.962594 -6.334871 5.239169 38.219961 17.486205 18.755615 24.010418 0.000000 0.000000 0.000000 0.728745 -0.739120 18.519978 0.044520 0.560735 -24.700965 -5.148504 22.663752 24.980762 17.408622 -5.570605 -25.302631 0.000000 0.000000 0.000000 -12.734534 -12.033006 0.968733 -49.324441 -12.509955 -2.451692 9.020863 -27.735653 -2.299564 0.000000 0.000000 0.000000 25.456226 -1.956783 3.795980 55.345355 17.601981 -0.665658 -3.118061 31.945363 2.010941 0.000000 0.000000 0.000000 
-1.148751 0.939471 -2.315326 4.320007 -4.806197 2.972068 -3.511125 -1.493367 -12.857661 -0.450547 -0.259430 16.526984 3.019993 8.912864 11.602366 0.000000 0.000000 0.000000 3.304651 1.414666 -11.773325 -2.910298 6.105737 54.835790 14.810124 11.880459 27.718658 0.000000 0.000000 0.000000 0.621269 -0.702067 19.209331 -1.105741 0.796489 -24.791490 -5.419178 18.308899 24.510597 16.210271 -5.502483 -25.672849 0.000000 0.000000 0.000000 -11.883340 -12.137979 2.231875 -46.747877 -15.029640 -1.549521 9.255082 -29.239946 -2.091238 0.000000 0.000000 0.000000 24.400014 -3.279391 1.186800 55.638880 12.644132 -2.602041 1.594537 30.608939 2.837110 0.000000 0.000000 0.000000 
-1.153200 0.941553 -2.248403 3.432274 -4.457382 1.526447 -3.008144 -0.749266 -6.565598 -0.003656 -0.392134 16.489148 2.953875 8.613144 10.303725 0.000000 0.000000 0.000000 2.059015 2.194735 -18.290460 1.330684 3.699749 60.387158 6.363632 5.238119 15.275976 0.000000 0.000000 0.000000 2.307471 -1.037545 19.429045 -0.885465 0.753345 -24.978458 -6.829625 13.612715 25.397761 14.444405 -5.080121 -26.124913 0.000000 0.000000 0.000000 -13.653888 -12.607206 3.217142 -42.827840 -17.110448 -0.883268 10.902530 -30.768359 -2.282614 0.000000 0.000000 0.000000 23.299215 -2.767431 0.139947 56.041989 8.589767 -4.338729 3.539607 29.813261 2.991405 0.000000 0.000000 0.000000 
-1.160762 0.943706 -2.179799 2.456349 -4.952906 0.655730 -2.246982 -0.021156 -0.308901 0.558216 -0.516705 16.031450 2.756801 8.192326 9.956597 0.000000 0.000000 0.000000 1.356066 2.757437 -23.015067 4.601081 1.118739 54.120816 -1.646296 -3.099622 -2.257158 0.000000 0.000000 0.000000 3.760710 -1.325248 20.140206 -1.401887 0.884876 -26.132261 -6.486281 9.868599 25.640863 12.669502 -4.603736 -26.471527 0.000000 0.000000 0.000000 -12.248240 -10.816206 3.283012 -44.457237 -19.574373 -0.285301 10.578738 -33.554716 -2.006564 0.000000 0.000000 0.000000 21.621104 -2.214326 -0.675279 56.098173 5.217180 -5.694500 4.720792 28.099744 2.822575 0.000000 0.000000 0.000000 
-1.172126 0.947824 -2.108479 1.557538 -5.220826 1.323142 -0.449599 0.426689 4.168155 0.627927 -0.526878 15.987175 0.517595 4.757368 11.557445 0.000000 0.000000 0.000000 1.457113 3.009521 -24.601290 5.475209 -0.002413 38.061625 -4.074926 -6.432099 -9.372964 0.000000 0.000000 0.000000 5.829212 -1.538413 17.678275 -1.852584 0.954761 -25.081192 -6.467802 7.412908 26.144803 11.426170 -4.240388 -26.899652 0.000000 0.000000 0.000000 -12.018941 -8.806929 2.872415 -46.070797 -19.256401 -0.506688 10.930699 -39.364773 -2.126342 0.000000 0.000000 0.000000 21.496701 -2.101897 -1.322621 54.693846 2.203121 -6.911307 5.301598 26.908319 2.645974 0.000000 0.000000 0.000000 
-1.186916 0.947889 -2.035165 0.366574 -5.030107 2.278438 1.520868 0.516608 6.214736 1.961758 -0.975122 18.947436 -2.803842 0.580980 15.435736 0.000000 0.000000 0.000000 2.370450 3.353754 -25.802360 4.565345 -0.104098 23.696186 -3.595376 -9.421490 1.041869 0.000000 0.000000 0.000000 8.194969 -1.796766 15.965245 -1.355628 0.869130 -26.871936 -6.913539 8.251811 27.257260 11.758834 -4.288313 -27.379182 0.000000 0.000000 0.000000 -11.394728 -8.336201 2.579303 -48.380996 -19.067840 -0.703755 10.010148 -43.087813 -1.980947 0.000000 0.000000 0.000000 22.704575 -3.017836 -1.655680 53.372298 0.979484 -7.523819 4.774678 24.415358 2.262821 0.000000 0.000000 0.000000 
-1.205797 0.943439 -1.961898 0.029359 -7.329835 1.857002 3.932474 0.230115 3.609065 0.383019 -0.332943 32.045242 -5.129919 -0.430727 22.983790 0.000000 0.000000 0.000000 3.237723 3.506377 -24.967796 4.481356 -0.035359 19.982888 -3.322449 -11.213034 8.245195 0.000000 0.000000 0.000000 9.818948 -1.983386 16.196198 -2.816770 1.134814 -26.797890 -4.832748 10.380334 26.646579 10.059620 -3.061428 -27.695545 0.000000 0.000000 0.000000 -13.264152 -8.203465 2.307162 -49.128942 -16.602966 -1.561802 8.493123 -46.064806 -1.592101 0.000000 0.000000 0.000000 21.332117 -2.063987 -0.883024 56.192400 0.357595 -7.992441 2.149798 22.302990 1.575279 0.000000 0.000000 0.000000 
-1.228103 0.935233 -1.890733 -0.466105 -7.488852 -0.032088 5.543214 -0.098707 -2.924289 1.475418 -0.571625 49.468222 -6.514626 0.936411 31.121030 0.000000 0.000000 0.000000 4.872387 3.322201 -22.035920 5.593666 -0.208796 24.007104 -5.416777 -14.938244 6.540826 0.000000 0.000000 0.000000 10.969832 -2.282230 17.931870 -4.292097 1.469100 -29.177441 -2.963617 12.312441 28.442492 12.208161 -3.999118 -28.430746 0.000000 0.000000 0.000000 -14.746979 -8.648003 2.135022 -50.393790 -13.751999 -2.879855 5.688446 -45.924443 -0.573678 0.000000 0.000000 0.000000 23.571227 -2.740554 -0.737579 53.745736 1.237316 -7.780192 1.982246 21.668815 1.546269 0.000000 0.000000 0.000000 
-1.253398 0.932910 -1.821742 -0.384845 -10.388565 -1.245010 5.667776 -0.275329 -10.379835 2.500800 0.180592 62.381645 -4.588078 3.314322 31.192966 0.000000 0.000000 0.000000 6.460126 2.844856 -17.781314 5.373725 0.220614 26.416536 -5.141542 -13.802821 3.927265 0.000000 0.000000 0.000000 10.077271 -2.101606 18.955595 -5.445335 1.661154 -28.766161 -0.159307 13.645666 27.904125 10.945727 -3.463937 -27.435134 0.000000 0.000000 0.000000 -18.143888 -7.780283 1.525677 -48.776917 -9.775709 -4.162198 0.835984 -40.297244 1.260024 0.000000 0.000000 0.000000 25.049269 -0.637969 0.452199 51.999137 4.970022 -6.140589 -1.363146 21.237881 0.939070 0.000000 0.000000 0.000000 
-1.282151 0.938945 -1.753405 0.028201 -13.781030 -2.209401 6.197725 -0.128778 -17.048296 3.073119 1.281714 64.152627 -1.154359 5.444849 24.104515 0.000000 0.000000 0.000000 8.092178 1.879358 -11.843482 3.332811 1.098685 25.522601 -3.747621 -10.885829 4.072869 0.000000 0.000000 0.000000 8.453343 -1.740216 19.581801 -5.588245 1.644184 -30.022179 2.793420 16.503274 28.687068 11.541327 -3.813635 -26.915666 0.000000 0.000000 0.000000 -19.932985 -8.471107 1.606210 -48.751656 -4.810047 -6.041689 -0.611444 -34.464952 1.469543 0.000000 0.000000 0.000000 25.641883 0.274475 1.254086 51.626826 9.555989 -4.391501 -3.182219 22.544282 0.737388 0.000000 0.000000 0.000000 
-1.312739 0.946831 -1.685369 0.125405 -18.198034 -2.343946 6.038955 0.205264 -21.989728 3.287251 2.119387 56.816027 1.546762 6.218235 13.107459 0.000000 0.000000 0.000000 9.493778 0.697450 -5.529582 0.562327 1.862165 22.441963 -1.058365 -6.415343 6.167973 0.000000 0.000000 0.000000 6.758549 -1.314811 19.639555 -5.027691 1.504089 -31.837284 4.521514 19.502436 29.662744 12.274588 -4.295555 -26.529270 0.000000 0.000000 0.000000 -20.192328 -6.396816 0.454871 -47.851075 0.281598 -7.877621 -4.177395 -29.923596 2.191657 0.000000 0.000000 0.000000 26.271155 0.692905 1.613100 51.263093 14.100669 -2.633347 -3.416882 25.684334 0.883495 0.000000 0.000000 0.000000 
-1.343087 0.950026 -1.616941 0.652118 -22.309162 -2.215823 5.181614 0.400150 -24.211287 -1.559718 2.924081 34.983520 11.216851 18.704951 28.849663 0.000000 0.000000 0.000000 8.993750 -0.368269 0.374097 -0.999458 1.971954 19.062618 1.836812 -2.726246 9.054276 0.000000 0.000000 0.000000 5.666956 -0.972554 17.465038 -4.638149 1.282272 -29.621379 5.085288 22.425247 28.142062 12.479900 -4.304988 -26.544245 0.000000 0.000000 0.000000 -20.772291 -6.586587 0.433933 -46.614771 5.555235 -9.363778 -5.913550 -27.782837 2.406993 0.000000 0.000000 0.000000 25.501713 1.830398 2.207352 52.239410 16.489603 -1.320140 -5.400325 31.194622 0.714005 0.000000 0.000000 0.000000 
-1.373420 0.946058 -1.547850 1.230477 -26.200970 -2.622853 2.718470 -0.051088 -22.965821 -2.750449 0.692128 7.425970 13.636536 19.189000 43.057228 0.000000 0.000000 0.000000 7.332759 -1.044283 6.471920 -2.214615 2.089517 17.357092 5.402388 2.995698 10.072839 0.000000 0.000000 0.000000 5.314411 -0.809730 16.731787 -3.586098 1.060268 -30.618916 5.563857 25.357680 29.444584 12.337029 -4.186470 -26.476182 0.000000 0.000000 0.000000 -21.288118 -5.873683 -0.008122 -45.539422 8.616095 -10.281977 -6.942428 -27.030894 2.580654 0.000000 0.000000 0.000000 25.658642 1.687078 2.233517 51.283157 20.197580 0.057195 -5.762890 34.835470 0.837074 0.000000 0.000000 0.000000 
